<svg width="32" height="32" viewBox="0 0 32 32" fill="none" xmlns="http://www.w3.org/2000/svg">
<path d="M23.8281 24.9707V24.0801H8.17183V24.9707H7.95901V26.0273C7.95901 26.2891 8.17291 26.5033 8.43451 26.5033H23.5654C23.8269 26.5033 24.0409 26.2891 24.0409 26.0273V24.9707H23.8281Z" fill="#A67C52"/>
<path d="M24.0378 24.9704V22.2574H7.95943L7.95605 22.249V24.9704H24.0378Z" fill="#F8B816"/>
<path opacity="0.1" d="M8.59002 26.027L8.58707 22.2574H7.95941L7.95609 22.249L7.95904 26.027C7.95904 26.2888 8.17293 26.503 8.43454 26.503H9.06552C8.80391 26.503 8.59002 26.2888 8.59002 26.027Z" fill="black"/>
<path d="M21.9995 23.8037C21.9995 23.6096 22.157 23.4521 22.3511 23.4521C22.5456 23.4521 22.7031 23.6096 22.7031 23.8037C22.7031 23.9978 22.5457 24.1553 22.3511 24.1553C22.1571 24.1553 21.9995 23.9978 21.9995 23.8037ZM20.1245 23.8037C20.1245 23.6096 20.282 23.4521 20.4761 23.4521C20.6702 23.4521 20.8277 23.6096 20.8277 23.8037C20.8277 23.9978 20.6702 24.1553 20.4761 24.1553C20.2821 24.1553 20.1245 23.9978 20.1245 23.8037ZM18.2495 23.8037C18.2495 23.6096 18.407 23.4521 18.6011 23.4521C18.7956 23.4521 18.9527 23.6096 18.9527 23.8037C18.9527 23.9978 18.7956 24.1553 18.6011 24.1553C18.4071 24.1553 18.2495 23.9978 18.2495 23.8037ZM16.3745 23.8037C16.3745 23.6096 16.532 23.4521 16.7261 23.4521C16.9202 23.4521 17.0777 23.6096 17.0777 23.8037C17.0777 23.9978 16.9202 24.1553 16.7261 24.1553C16.5321 24.1553 16.3745 23.9978 16.3745 23.8037ZM14.4995 23.8037C14.4995 23.6096 14.657 23.4521 14.8516 23.4521C15.0452 23.4521 15.2027 23.6096 15.2027 23.8037C15.2027 23.9978 15.0452 24.1553 14.8516 24.1553C14.6571 24.1553 14.4995 23.9978 14.4995 23.8037ZM12.625 23.8037C12.625 23.6096 12.7821 23.4521 12.9761 23.4521C13.1706 23.4521 13.3281 23.6096 13.3281 23.8037C13.3281 23.9978 13.1707 24.1553 12.9761 24.1553C12.7821 24.1553 12.625 23.9978 12.625 23.8037ZM10.7495 23.8037C10.7495 23.6096 10.907 23.4521 11.1016 23.4521C11.2957 23.4521 11.4527 23.6096 11.4527 23.8037C11.4527 23.9978 11.2956 24.1553 11.1016 24.1553C10.9071 24.1553 10.7495 23.9978 10.7495 23.8037ZM8.875 23.8037C8.875 23.6096 9.03208 23.4521 9.22609 23.4521C9.42062 23.4521 9.57766 23.6096 9.57766 23.8037C9.57766 23.9978 9.42062 24.1553 9.22609 24.1553C9.03208 24.1553 8.875 23.9978 8.875 23.8037Z" fill="#A67C52"/>
<path d="M7.95941 22.3773L5.51334 16.247L10.2232 17.7456C10.2474 17.7533 10.2724 17.7571 10.2972 17.7571C10.3508 17.7571 10.4036 17.7394 10.4471 17.7056C10.5106 17.6562 10.5458 17.5786 10.5411 17.4982L10.1218 10.2505L13.7513 14.7801C13.7982 14.8387 13.8687 14.8717 13.9419 14.8717C13.9582 14.8717 13.9747 14.8701 13.9911 14.8667C14.0809 14.8482 14.1528 14.781 14.1774 14.6925L16 8.12158L17.8226 14.6924C17.8471 14.7809 17.9191 14.8481 18.0089 14.8667C18.0253 14.87 18.0418 14.8716 18.0581 14.8716C18.1314 14.8716 18.2017 14.8386 18.2487 14.78L21.8781 10.2505L21.4588 17.4981C21.4541 17.5786 21.4892 17.6561 21.5528 17.7056C21.5962 17.7393 21.6491 17.757 21.7027 17.757C21.7275 17.757 21.7525 17.7532 21.7767 17.7455L26.4867 16.2469L24.0409 22.3773L7.95941 22.3773Z" fill="#FECF05"/>
<path d="M12.7826 19.5585C12.8372 19.6167 12.8372 19.7119 12.7826 19.77L11.7843 20.7789C11.7267 20.8341 11.6325 20.8341 11.5749 20.7789L10.5766 19.77C10.522 19.7119 10.522 19.6167 10.5766 19.5585L11.575 18.5496C11.6326 18.4945 11.7267 18.4945 11.7843 18.5496L12.7826 19.5585Z" fill="white"/>
<path d="M8.40719 19.5585C8.4617 19.6167 8.4617 19.7119 8.40719 19.77L7.40889 20.7789C7.35128 20.8341 7.25711 20.8341 7.1995 20.7789L6.20111 19.77C6.14655 19.7119 6.14655 19.6167 6.20111 19.5585L7.1995 18.5496C7.25711 18.4945 7.35128 18.4945 7.40889 18.5496L8.40719 19.5585Z" fill="#A67C52"/>
<path d="M21.4234 19.5585C21.478 19.6167 21.478 19.7119 21.4234 19.77L20.425 20.7789C20.3675 20.8341 20.2733 20.8341 20.2156 20.7789L19.2173 19.77C19.1628 19.7119 19.1628 19.6167 19.2173 19.5585L20.2156 18.5496C20.2732 18.4945 20.3674 18.4945 20.425 18.5496L21.4234 19.5585Z" fill="white"/>
<path d="M25.6525 19.5585C25.707 19.6167 25.707 19.7119 25.6525 19.77L24.6541 20.7789C24.5965 20.834 24.5023 20.834 24.4447 20.7789L23.4464 19.77C23.3919 19.7119 23.3919 19.6167 23.4464 19.5585L24.4447 18.5497C24.5023 18.4945 24.5965 18.4945 24.6541 18.5496L25.6525 19.5585Z" fill="#A67C52"/>
<path d="M16 9.69471C15.917 9.69471 15.8423 9.6445 15.8105 9.56777C15.3819 8.53132 15.0661 8.21491 14.0315 7.78554C13.9548 7.75371 13.9048 7.67871 13.9048 7.5956C13.9048 7.51254 13.9548 7.43749 14.0315 7.40575C15.0661 6.97633 15.382 6.65988 15.8105 5.62347C15.8423 5.54669 15.917 5.49658 16 5.49658C16.083 5.49658 16.1579 5.54669 16.1896 5.62347C16.6181 6.65993 16.934 6.97633 17.9686 7.40575C18.0452 7.43749 18.0953 7.51254 18.0953 7.5956C18.0953 7.67875 18.0452 7.75375 17.9686 7.78554C16.934 8.21491 16.6181 8.53136 16.1896 9.56777C16.1579 9.6445 16.083 9.69471 16 9.69471Z" fill="#A67C52"/>
<g opacity="0.1">
<path d="M14.6298 7.33365C14.5673 7.30773 14.523 7.25284 14.5085 7.18848C14.3681 7.26043 14.2109 7.33144 14.0315 7.40588C13.9548 7.43762 13.9048 7.51266 13.9048 7.59573C13.9048 7.67888 13.9548 7.75388 14.0315 7.78566C15.0661 8.21504 15.382 8.53149 15.8105 9.5679C15.8423 9.64463 15.917 9.69484 16 9.69484C16.083 9.69484 16.1579 9.64463 16.1896 9.5679C16.2622 9.39221 16.3316 9.23771 16.4018 9.09938C15.9768 8.07634 15.6588 7.76068 14.6298 7.33365Z" fill="black"/>
</g>
<path d="M16.1304 20.5944C16.0587 20.7063 15.9412 20.7063 15.8694 20.5944L14.2703 18.1016C14.1986 17.9898 14.1958 17.805 14.2641 17.691L15.8757 15.003C15.944 14.889 16.0559 14.889 16.1242 15.003L17.7359 17.691C17.8043 17.805 17.8014 17.9898 17.7297 18.1016L16.1304 20.5944Z" fill="#0CB8C0"/>
<path d="M14.9221 16.5935C14.8538 16.7075 14.8566 16.8922 14.9284 17.0041L15.8696 18.4712C15.9413 18.583 16.0587 18.583 16.1305 18.4712L17.0717 17.0041C17.1434 16.8922 17.1463 16.7074 17.0779 16.5935L16.1242 15.003C16.0559 14.889 15.9441 14.889 15.8758 15.003L14.9221 16.5935Z" fill="#6ECAD5"/>
<path d="M16.1305 18.4712C16.0587 18.583 15.9413 18.583 15.8695 18.4712L15.6484 18.1265V20.2499L15.8695 20.5944C15.9412 20.7062 16.0587 20.7062 16.1305 20.5944L16.3516 20.2497V18.1265L16.1305 18.4712Z" fill="#068F8F"/>
<path d="M10.1109 11.5429C9.44759 11.5429 8.90787 10.997 8.90787 10.3259C8.90787 9.65484 9.44759 9.10889 10.1109 9.10889C10.7741 9.10889 11.3138 9.65479 11.3138 10.3259C11.3138 10.997 10.7742 11.5429 10.1109 11.5429Z" fill="#F8B816"/>
<path opacity="0.1" d="M9.62577 10.3259C9.62577 9.78126 9.98127 9.31907 10.4698 9.16425C10.3564 9.12829 10.2359 9.10889 10.1109 9.10889C9.44765 9.10889 8.90793 9.65479 8.90793 10.3259C8.90793 10.997 9.44765 11.5429 10.1109 11.5429C10.2359 11.5429 10.3564 11.5235 10.4698 11.4876C9.98127 11.3327 9.62577 10.8705 9.62577 10.3259Z" fill="black"/>
<path d="M21.8891 11.5429C21.2258 11.5429 20.6861 10.997 20.6861 10.3259C20.6861 9.65484 21.2258 9.10889 21.8891 9.10889C22.5524 9.10889 23.0921 9.65479 23.0921 10.3259C23.0921 10.997 22.5524 11.5429 21.8891 11.5429Z" fill="#F8B816"/>
<path opacity="0.1" d="M21.4085 10.3259C21.4085 9.78211 21.7629 9.32053 22.2503 9.165C22.1362 9.12862 22.0149 9.10889 21.8891 9.10889C21.2258 9.10889 20.6861 9.65479 20.6861 10.3259C20.6861 10.997 21.2258 11.5429 21.8891 11.5429C22.0149 11.5429 22.1363 11.5232 22.2503 11.4868C21.7628 11.3313 21.4085 10.8697 21.4085 10.3259Z" fill="black"/>
<path d="M5.20295 17.0699C4.53962 17.0699 4 16.5239 4 15.8528C4 15.1817 4.53962 14.6357 5.20295 14.6357C5.86628 14.6357 6.40595 15.1817 6.40595 15.8528C6.40595 16.5239 5.86628 17.0699 5.20295 17.0699Z" fill="#F8B816"/>
<path opacity="0.1" d="M4.70875 15.8528C4.70875 15.3065 5.06641 14.8431 5.55733 14.6897C5.4452 14.6547 5.32623 14.6357 5.20295 14.6357C4.53963 14.6358 4 15.1818 4 15.8528C4 16.5239 4.53963 17.0699 5.20295 17.0699C5.32628 17.0699 5.44525 17.0509 5.55733 17.0159C5.06641 16.8625 4.70875 16.3992 4.70875 15.8528Z" fill="black"/>
<path d="M26.797 17.0699C26.1337 17.0699 25.594 16.5239 25.594 15.8528C25.594 15.1817 26.1337 14.6357 26.797 14.6357C27.4603 14.6357 28 15.1817 28 15.8528C28 16.5239 27.4603 17.0699 26.797 17.0699Z" fill="#F8B816"/>
<path opacity="0.1" d="M26.334 15.8528C26.334 15.3123 26.6842 14.8532 27.167 14.6949C27.0503 14.6566 26.926 14.6357 26.7969 14.6357C26.1337 14.6357 25.594 15.1817 25.594 15.8528C25.594 16.5239 26.1337 17.0699 26.7969 17.0699C26.926 17.0699 27.0503 17.049 27.167 17.0107C26.6842 16.8525 26.334 16.3933 26.334 15.8528Z" fill="black"/>
</svg>
