<svg width="32" height="32" viewBox="0 0 32 32" fill="none" xmlns="http://www.w3.org/2000/svg">
<g clip-path="url(#clip0_9_2173)">
<g clip-path="url(#clip1_9_2173)">
<path d="M10.375 11.0312C11.4489 11.0312 12.3948 10.7381 13.176 10.364C12.3829 11.8561 11.9078 13.5834 11.8135 15.3646C8.64264 15.705 6.15625 18.3652 6.15625 21.625C6.15625 25.1144 8.99493 28 12.4844 28C13.5594 28 14.5892 27.6971 15.5128 27.1905C14.08 25.7859 13.1875 23.7853 13.1875 21.625C13.1875 19.4647 14.08 17.511 15.5128 16.1064C14.8016 15.7162 14.0267 15.4509 13.2175 15.3478C13.5233 10.3779 17.2766 6.27856 22.1159 5.53058C20.8834 7.26093 20.2188 9.32562 20.2188 11.4934V15.3679C17.0633 15.723 14.5938 18.3762 14.5938 21.625C14.5938 25.1144 17.4324 28 20.9219 28C24.4113 28 27.25 25.1144 27.25 21.625C27.25 18.3762 24.7805 15.723 21.625 15.3679V11.4934C21.625 9.11615 22.5506 6.88116 24.2315 5.20026L25.4318 4H23.7344C20.4319 4 17.4388 5.34674 15.2733 7.5191C14.7047 6.97327 12.8817 5.40625 10.375 5.40625C7.40869 5.40625 5.37897 7.61652 5.28082 7.71063L4.75 8.21875L5.28082 8.72687C5.37897 8.82098 7.40869 11.0312 10.375 11.0312ZM20.9219 19.5156C19.7588 19.5156 18.8125 20.4619 18.8125 21.625H17.4062C17.4062 19.6866 18.9835 18.1094 20.9219 18.1094V19.5156ZM12.4844 19.5156C11.3213 19.5156 10.375 20.4619 10.375 21.625H8.96875C8.96875 19.6866 10.546 18.1094 12.4844 18.1094V19.5156Z" fill="#E3E8EB"/>
</g>
</g>
<defs>
<clipPath id="clip0_9_2173">
<rect width="24" height="24" fill="white" transform="translate(4 4)"/>
</clipPath>
<clipPath id="clip1_9_2173">
<rect width="24" height="24" fill="white" transform="translate(4 4)"/>
</clipPath>
</defs>
</svg>
