<svg width="32" height="32" viewBox="0 0 32 32" fill="none" xmlns="http://www.w3.org/2000/svg">
<g clip-path="url(#clip0_9_2196)">
<path d="M25.8906 8.21875C24.7275 8.21875 23.7812 9.16504 23.7812 10.3281C23.7812 11.2437 24.3708 12.0167 25.1875 12.308V16.6562H23.7812V20.875H24.4844C25.6475 20.875 26.5938 19.9287 26.5938 18.7656V12.308C27.4104 12.0167 28 11.2437 28 10.3281C28 9.16504 27.0537 8.21875 25.8906 8.21875Z" fill="#E3E8EB"/>
<path d="M11.0781 9.625H15.2969V11.0312H11.0781V9.625Z" fill="#E3E8EB"/>
<path d="M16.7031 20.875H22.375V15.25H16.7031V20.875ZM18.8125 16.6562H20.2188V19.4688H18.8125V16.6562Z" fill="#E3E8EB"/>
<path d="M9.67188 15.25H4V20.875H9.67188V15.25ZM7.5625 19.4688H6.15625V16.6562H7.5625V19.4688Z" fill="#E3E8EB"/>
<path d="M22.375 7.16278C19.8143 5.28082 16.403 4 13.1875 4C9.97162 4 6.56036 5.28119 4 7.16278V13.8438H22.375V7.16278ZM16.7031 12.4375H9.67188V8.21875H16.7031V12.4375Z" fill="#E3E8EB"/>
<path d="M15.2969 20.875V15.25H11.0781V20.875H15.2969ZM12.4844 16.6562H13.8906V19.4688H12.4844V16.6562Z" fill="#E3E8EB"/>
<path d="M9.67188 25.1875H16.7031V28H22.375V22.2812H4V28H9.67188V25.1875Z" fill="#E3E8EB"/>
<path d="M11.0781 26.5938H15.2969V28H11.0781V26.5938Z" fill="#E3E8EB"/>
</g>
<defs>
<clipPath id="clip0_9_2196">
<rect width="24" height="24" fill="white" transform="translate(4 4)"/>
</clipPath>
</defs>
</svg>
