<svg width="32" height="32" viewBox="0 0 32 32" fill="none" xmlns="http://www.w3.org/2000/svg">
<g clip-path="url(#clip0_9_2189)">
<path d="M4 20.2188H28V23.0312H4V20.2188Z" fill="#E3E8EB"/>
<path d="M8.26562 8.26562H11.0781V12.4844H8.26562V8.26562Z" fill="#E3E8EB"/>
<path d="M11.0781 15.2969H13.8906V11.0781H12.4844V13.8906H11.0781V15.2969Z" fill="#E3E8EB"/>
<path d="M4 18.8125H28V4.75H4V18.8125ZM23.0312 12.4844C21.8682 12.4844 20.9219 11.5381 20.9219 10.375C20.9219 9.45947 21.5115 8.6864 22.3281 8.39508V6.85937H23.7344V8.39508C24.551 8.6864 25.1406 9.45947 25.1406 10.375H23.7344C23.7344 9.987 23.4193 9.67187 23.0312 9.67187C22.6432 9.67187 22.3281 9.987 22.3281 10.375C22.3281 10.763 22.6432 11.0781 23.0312 11.0781C24.1943 11.0781 25.1406 12.0244 25.1406 13.1875C25.1406 14.103 24.551 14.8761 23.7344 15.1674V16.7031H22.3281V15.1674C21.5115 14.8761 20.9219 14.103 20.9219 13.1875H22.3281C22.3281 13.5755 22.6432 13.8906 23.0312 13.8906C23.4193 13.8906 23.7344 13.5755 23.7344 13.1875C23.7344 12.7995 23.4193 12.4844 23.0312 12.4844ZM16.7031 11.0781H19.5156V12.4844H16.7031V11.0781ZM16.7031 13.8906H19.5156V15.2969H16.7031V13.8906ZM6.85938 6.85937H12.4844V9.67187H15.2969V16.7031H9.67188V13.8906H6.85938V6.85937Z" fill="#E3E8EB"/>
<path d="M18.8502 24.4375H13.1498L12.681 25.8438H11.0781V27.25H20.9219V25.8438H19.319L18.8502 24.4375Z" fill="#E3E8EB"/>
</g>
<defs>
<clipPath id="clip0_9_2189">
<rect width="24" height="24" fill="white" transform="translate(4 4)"/>
</clipPath>
</defs>
</svg>
