<svg width="32" height="32" viewBox="0 0 32 32" fill="none" xmlns="http://www.w3.org/2000/svg">
<g clip-path="url(#clip0_9_2177)">
<g clip-path="url(#clip1_9_2177)">
<path d="M12.4844 11.0538C12.4844 12.0898 12.7583 13.054 13.2016 13.9181L15.5129 12.226C15.3815 11.8576 15.2969 11.4667 15.2969 11.0538C15.2969 10.6407 15.3815 10.2499 15.5129 9.88135L13.2016 8.18945C12.7583 9.05353 12.4844 10.0178 12.4844 11.0538Z" fill="#E3E8EB"/>
<path d="M20.9219 11.0542C20.9219 9.89111 19.9756 8.94482 18.8125 8.94482C17.6494 8.94482 16.7031 9.89111 16.7031 11.0542C16.7031 12.2173 17.6494 13.1636 18.8125 13.1636C19.9756 13.1636 20.9219 12.2173 20.9219 11.0542Z" fill="#E3E8EB"/>
<path d="M19.5156 7.60956C20.2515 7.75952 20.8966 8.14679 21.3879 8.67908L23.6498 7.02307C22.6315 5.80322 21.1762 4.98364 19.5156 4.79688V7.60956Z" fill="#E3E8EB"/>
<path d="M25.1405 11.0538C25.1405 10.0178 24.8666 9.05353 24.4233 8.18945L22.1119 9.88153C22.2434 10.2499 22.328 10.6409 22.328 11.0538C22.328 11.4669 22.2434 11.8576 22.1119 12.226L24.4233 13.9181C24.8666 13.054 25.1405 12.0898 25.1405 11.0538Z" fill="#E3E8EB"/>
<path d="M21.3879 13.4292C20.8966 13.9615 20.2515 14.3488 19.5156 14.4987V17.3114C21.1762 17.1246 22.6315 16.3051 23.6498 15.085L21.3879 13.4292Z" fill="#E3E8EB"/>
<path d="M18.1094 14.4987C17.3735 14.3488 16.7284 13.9615 16.2371 13.4292L13.9752 15.085C14.9935 16.3051 16.4488 17.1246 18.1094 17.3114V14.4987Z" fill="#E3E8EB"/>
<path d="M18.1094 7.60956V4.79688C16.4488 4.98364 14.9935 5.80322 13.9752 7.02307L16.2371 8.67908C16.7284 8.14679 17.3735 7.75952 18.1094 7.60956Z" fill="#E3E8EB"/>
<path d="M4 15.9761H6.85938V24.4136H4V15.9761Z" fill="#E3E8EB"/>
<path d="M20.4156 23.0073H13.8906V21.6011H20.2188V18.7886H16.7031L12.4844 15.9761H8.26562V25.1167L12.4844 27.2261H19.3047L28 21.1651L26.3828 18.8589L20.4156 23.0073Z" fill="#E3E8EB"/>
</g>
</g>
<defs>
<clipPath id="clip0_9_2177">
<rect width="24" height="24" fill="white" transform="translate(4 4)"/>
</clipPath>
<clipPath id="clip1_9_2177">
<rect width="24" height="24" fill="white" transform="translate(4 4)"/>
</clipPath>
</defs>
</svg>
