<svg width="32" height="32" viewBox="0 0 32 32" fill="none" xmlns="http://www.w3.org/2000/svg">
<g clip-path="url(#clip0_9_2206)">
<path d="M19.1088 12.8928L23.8122 11.3252L24.5977 7.40381L20.6763 8.18933L19.1088 12.8928Z" fill="#E3E8EB"/>
<path d="M7.37109 7.40381L8.1546 11.3252L12.8602 12.8928L11.2905 8.18933L7.37109 7.40381Z" fill="#E3E8EB"/>
<path d="M16.0017 4L13.8923 8.26562L16.0017 12.4844L18.1111 8.26562L16.0017 4Z" fill="#E3E8EB"/>
<path d="M17.6763 18.1091L16.0016 14.7598L14.3269 18.1091H17.6763Z" fill="#E3E8EB"/>
<path d="M13.0688 17.4808L14.8638 13.8906H10.3762L13.0688 17.4808Z" fill="#E3E8EB"/>
<path d="M18.9344 17.4808L21.627 13.8906H17.1394L18.9344 17.4808Z" fill="#E3E8EB"/>
<path d="M17.9141 19.5156H14.0894L16.0017 28L17.9141 19.5156Z" fill="#E3E8EB"/>
<path d="M11.7833 18.1091L9.35034 14.8652L7.1875 18.1091H11.7833Z" fill="#E3E8EB"/>
<path d="M19.3627 19.5156L17.5736 27.5074L24.7303 19.5156H19.3627Z" fill="#E3E8EB"/>
<path d="M12.6406 19.5156H7.27307L14.4297 27.5074L12.6406 19.5156Z" fill="#E3E8EB"/>
<path d="M22.6529 14.8652L20.22 18.1091H24.8157L22.6529 14.8652Z" fill="#E3E8EB"/>
</g>
<defs>
<clipPath id="clip0_9_2206">
<rect width="24" height="24" fill="white" transform="translate(4 4)"/>
</clipPath>
</defs>
</svg>
